# Rhino

mtllib planta1.mtl
g Group20
usemtl _plant_2_apg_
v -16.471432380595978 27.442451810610084 35.559279765914553
v -16.21871702481198 27.393793087946296 35.482616962407988
v -16.372035738654947 25.436569736199981 35.477155251453674
v -16.618583510568548 25.484601050411658 35.549780736265518
vt 0.28471329808235168 0.32042756676673889
vt 0.28471329808235168 0.2867152988910675
vt 0.21528671681880951 0.2867152988910675
vt 0.21528671681880951 0.32042756676673889
vn -0.28189161419868469 0.025299379602074623 -0.95911264419555664
vn -0.28189161419868469 0.025299379602074623 -0.95911264419555664
vn -0.28189161419868469 0.025299379602074623 -0.95911264419555664
vn -0.28189161419868469 0.025299379602074623 -0.95911264419555664
f 1/1/1 2/2/2 3/3/3 4/4/4
usemtl _plant_2_apg_
v -16.4730383287 27.377646795218492 35.813858373387895
v -16.471432380595978 27.442451810610084 35.559279765914553
v -16.618583510568548 25.484601050411658 35.549780736265518
v -16.623806792085812 25.436569736742001 35.806749518526473
vt 0.35614186525344849 0.0010010009864345193
vt 0.32242956757545471 0.0010010009864345193
vt 0.32242956757545471 0.070427566766738892
vt 0.35614186525344849 0.070427566766738892
vn -0.99708849191665649 0.076173290610313416 0.00349086569622159
vn -0.99708849191665649 0.076173290610313416 0.00349086569622159
vn -0.99708849191665649 0.076173290610313416 0.00349086569622159
vn -0.99708849191665649 0.076173290610313416 0.00349086569622159
f 5/5/5 6/6/6 7/7/7 8/8/8
usemtl _plant_2_apg_
v -16.549047515271887 28.782544067357705 35.86284499749366
v -16.543828029705349 28.878292137898153 35.605873297488849
v -16.471432380595978 27.442451810610084 35.559279765914553
v -16.4730383287 27.377646795218492 35.813858373387895
vt 0.21328471601009369 0.35614186525344849
vt 0.21328471601009369 0.32242956757545471
vt 0.14385814964771271 0.32242956757545471
vt 0.14385814964771271 0.35614186525344849
vn -0.99825817346572876 -0.051162227988243103 -0.029376788064837456
vn -0.99825817346572876 -0.051162227988243103 -0.029376788064837456
vn -0.99825817346572876 -0.051162227988243103 -0.029376788064837456
vn -0.99825817346572876 -0.051162227988243103 -0.029376788064837456
f 9/9/9 10/10/10 11/11/11 12/12/12
usemtl _plant_2_apg_
v -16.543828029705349 28.878292137898153 35.605873297488849
v -16.297251290240784 28.830233104044062 35.533270067321048
v -16.21871702481198 27.393793087946296 35.482616962407988
v -16.471432380595978 27.442451810610084 35.559279765914553
vt 0.35614186525344849 0.2867152988910675
vt 0.32242956757545471 0.2867152988910675
vt 0.32242956757545471 0.35614186525344849
vt 0.35614186525344849 0.35614186525344849
vn -0.28325751423835754 0.017580434679985046 -0.95888274908065796
vn -0.28325751423835754 0.017580434679985046 -0.95888274908065796
vn -0.28325751423835754 0.017580434679985046 -0.95888274908065796
vn -0.28325751423835754 0.017580434679985046 -0.95888274908065796
f 13/13/13 14/14/14 15/15/15 16/16/16
usemtl _plant_2_apg_
v -16.332182755900568 26.035826094936724 35.911133466322958
v -16.484064278064416 25.987781253582856 36.118510638136001
v -16.34877600159389 25.26661071944546 36.000514074036133
v -16.196937357551491 25.31464191564595 35.793136847004149
vt 0.28471329808235168 0.49899899959564209
vt 0.28471329808235168 0.46528670191764832
vt 0.21528671681880951 0.46528670191764832
vt 0.21528671681880951 0.49899899959564209
vn 0.79990208148956299 0.052213769406080246 0.59785479307174683
vn 0.79990208148956299 0.052213769406080246 0.59785479307174683
vn 0.79990208148956299 0.052213769406080246 0.59785479307174683
vn 0.79990208148956299 0.052213769406080246 0.59785479307174683
f 17/17/17 18/18/18 19/19/19 20/20/20
usemtl _plant_2_apg_
v -16.484027042650098 25.98779316427181 35.703756433591174
v -16.332182755900568 26.035826094936724 35.911133466322958
v -16.196937357551491 25.31464191564595 35.793136847004149
v -16.348776161132072 25.26661061075178 35.58575983087529
vt 0.49899899959564209 0.2867152988910675
vt 0.46528670191764832 0.2867152988910675
vt 0.46528670191764832 0.35614186525344849
vt 0.49899899959564209 0.35614186525344849
vn 0.75550109148025513 0.24133816361427307 -0.60907638072967529
vn 0.75550109148025513 0.24133816361427307 -0.60907638072967529
vn 0.75550109148025513 0.24133816361427307 -0.60907638072967529
vn 0.75550109148025513 0.24133816361427307 -0.60907638072967529
f 21/21/21 22/22/22 23/23/23 24/24/24
usemtl _plant_2_apg_
v -16.905526369654481 28.014167812860503 35.500603526421195
v -16.752835695937328 28.062480566399071 35.708015071221283
v -16.449364422116702 27.465826329553259 35.883515454186742
v -16.601210435548499 27.417817734124757 35.676209715934561
vt 0.42757043242454529 0.49899899959564209
vt 0.42757043242454529 0.46528670191764832
vt 0.35814386606216431 0.46528670191764832
vt 0.35814386606216431 0.49899899959564209
vn 0.7641943097114563 0.20982930064201355 -0.60990059375762939
vn 0.7641943097114563 0.20982930064201355 -0.60990059375762939
vn 0.7641943097114563 0.20982930064201355 -0.60990059375762939
vn 0.7641943097114563 0.20982930064201355 -0.60990059375762939
f 25/25/25 26/26/26 27/27/27 28/28/28
usemtl _plant_2_apg_
v -16.601210435548499 27.417817734124757 35.676209715934561
v -16.449364422116702 27.465826329553259 35.883515454186742
v -16.349849163394495 26.781162840089671 35.969027646616738
v -16.501691849605056 26.73313043943503 35.761650652592785
vt 0.4632847011089325 0.42957243323326111
vt 0.42957243323326111 0.42957243323326111
vt 0.42957243323326111 0.49899899959564209
vt 0.4632847011089325 0.49899899959564209
vn 0.80141353607177734 0.041999422013759613 -0.59663420915603638
vn 0.80141353607177734 0.041999422013759613 -0.59663420915603638
vn 0.80141353607177734 0.041999422013759613 -0.59663420915603638
vn 0.80141353607177734 0.041999422013759613 -0.59663420915603638
f 29/29/29 30/30/30 31/31/31 32/32/32
usemtl _plant_2_apg_
v -16.501691849605056 26.73313043943503 35.761650652592785
v -16.349849163394495 26.781162840089671 35.969027646616738
v -16.332182755900568 26.035826094936724 35.911133466322958
v -16.484027042650098 25.98779316427181 35.703756433591174
vt 0.070427566766738892 0.5347132682800293
vt 0.070427566766738892 0.50100100040435791
vt 0.0010010009864345193 0.50100100040435791
vt 0.0010010009864345193 0.5347132682800293
vn 0.79781848192214966 0.06546282023191452 -0.59933316707611084
vn 0.79781848192214966 0.06546282023191452 -0.59933316707611084
vn 0.79781848192214966 0.06546282023191452 -0.59933316707611084
vn 0.79781848192214966 0.06546282023191452 -0.59933316707611084
f 33/33/33 34/34/34 35/35/35 36/36/36
usemtl _plant_2_apg_
v -16.752835695937328 28.062480566399071 35.708015071221283
v -16.904673485250839 28.014435728481203 35.915353571893071
v -16.601259048577013 27.417971936959603 36.091451797155401
v -16.449364422116702 27.465826329553259 35.883515454186742
vt 0.5347132682800293 0.0010010009864345193
vt 0.50100100040435791 0.0010010009864345193
vt 0.50100100040435791 0.070427566766738892
vt 0.5347132682800293 0.070427566766738892
vn 0.64104020595550537 0.49813476204872131 0.58389145135879517
vn 0.64104020595550537 0.49813476204872131 0.58389145135879517
vn 0.64104020595550537 0.49813476204872131 0.58389145135879517
vn 0.64104020595550537 0.49813476204872131 0.58389145135879517
f 37/37/37 38/38/38 39/39/39 40/40/40
usemtl _plant_2_apg_
v -16.449364422116702 27.465826329553259 35.883515454186742
v -16.601259048577013 27.417971936959603 36.091451797155401
v -16.501718002971934 26.733121213658894 36.176404753224276
v -16.349849163394495 26.781162840089671 35.969027646616738
vt 0.21328471601009369 0.5347132682800293
vt 0.21328471601009369 0.50100100040435791
vt 0.14385814964771271 0.50100100040435791
vt 0.14385814964771271 0.5347132682800293
vn 0.77161866426467896 0.18779827654361725 0.60773056745529175
vn 0.77161866426467896 0.18779827654361725 0.60773056745529175
vn 0.77161866426467896 0.18779827654361725 0.60773056745529175
vn 0.77161866426467896 0.18779827654361725 0.60773056745529175
f 41/41/41 42/42/42 43/43/43 44/44/44
usemtl _plant_2_apg_
v -16.349849163394495 26.781162840089671 35.969027646616738
v -16.501718002971934 26.733121213658894 36.176404753224276
v -16.484064278064416 25.987781253582856 36.118510638136001
v -16.332182755900568 26.035826094936724 35.911133466322958
vt 0.5347132682800293 0.072429575026035309
vt 0.50100100040435791 0.072429575026035309
vt 0.50100100040435791 0.14185614883899689
vt 0.5347132682800293 0.14185614883899689
vn 0.80940216779708862 -0.026390904560685158 0.58666145801544189
vn 0.80940216779708862 -0.026390904560685158 0.58666145801544189
vn 0.80940216779708862 -0.026390904560685158 0.58666145801544189
vn 0.80940216779708862 -0.026390904560685158 0.58666145801544189
f 45/45/45 46/46/46 47/47/47 48/48/48
usemtl _plant_2_apg_
v -16.507790979478742 26.060281477820247 35.798689269359308
v -16.33330145899339 26.040318545413871 35.604945891309079
v -16.429738429620588 25.304649246347772 35.647414112981942
v -16.604184430089632 25.324601349884542 35.841160827242454
vt 0.49899899959564209 0.60614186525344849
vt 0.49899899959564209 0.5724295973777771
vt 0.42957243323326111 0.5724295973777771
vt 0.42957243323326111 0.60614186525344849
vn -0.7388719916343689 0.058078449219465256 -0.67133826017379761
vn -0.7388719916343689 0.058078449219465256 -0.67133826017379761
vn -0.7388719916343689 0.058078449219465256 -0.67133826017379761
vn -0.7388719916343689 0.058078449219465256 -0.67133826017379761
f 49/49/49 50/50/50 51/51/51 52/52/52
usemtl _plant_2_apg_
v -16.374155439914777 26.002883227533932 36.015981928583976
v -16.507790979478742 26.060281477820247 35.798689269359308
v -16.604184430089632 25.324601349884542 35.841160827242454
v -16.470554584464701 25.267203875464304 36.058452984693169
vt 0.60614186525344849 0.50100100040435791
vt 0.5724295973777771 0.50100100040435791
vt 0.5724295973777771 0.57042759656906128
vt 0.60614186525344849 0.57042759656906128
vn -0.82654440402984619 0.13977934420108795 0.54523950815200806
vn -0.82654440402984619 0.13977934420108795 0.54523950815200806
vn -0.82654440402984619 0.13977934420108795 0.54523950815200806
vn -0.82654440402984619 0.13977934420108795 0.54523950815200806
f 53/53/53 54/54/54 55/55/55 56/56/56
usemtl _plant_2_apg_
v -16.114741528684178 28.024194357423003 36.430870250276769
v -16.249232953070848 28.081823516497096 36.213478897112175
v -16.492299150619559 27.486385072971849 35.958011849319384
v -16.358656656299402 27.429017582068496 36.175236037871024
vt 0.070427566766738892 0.64185613393783569
vt 0.070427566766738892 0.60814386606216431
vt 0.0010010009864345193 0.60814386606216431
vt 0.0010010009864345193 0.64185613393783569
vn -0.83309394121170044 0.10786204785108566 0.54251289367675781
vn -0.83309394121170044 0.10786204785108566 0.54251289367675781
vn -0.83309394121170044 0.10786204785108566 0.54251289367675781
vn -0.83309394121170044 0.10786204785108566 0.54251289367675781
f 57/57/57 58/58/58 59/59/59 60/60/60
usemtl _plant_2_apg_
v -16.358656656299402 27.429017582068496 36.175236037871024
v -16.492299150619559 27.486385072971849 35.958011849319384
v -16.535699234708453 26.807519409323049 35.805573056185565
v -16.402065417989974 26.750121249703668 36.022865540991859
vt 0.64185613393783569 0.072429575026035309
vt 0.60814386606216431 0.072429575026035309
vt 0.60814386606216431 0.14185614883899689
vt 0.64185613393783569 0.14185614883899689
vn -0.85722237825393677 -0.06000799685716629 0.51143801212310791
vn -0.85722237825393677 -0.06000799685716629 0.51143801212310791
vn -0.85722237825393677 -0.06000799685716629 0.51143801212310791
vn -0.85722237825393677 -0.06000799685716629 0.51143801212310791
f 61/61/61 62/62/62 63/63/63 64/64/64
usemtl _plant_2_apg_
v -16.402065417989974 26.750121249703668 36.022865540991859
v -16.535699234708453 26.807519409323049 35.805573056185565
v -16.507790979478742 26.060281477820247 35.798689269359308
v -16.374155439914777 26.002883227533932 36.015981928583976
vt 0.14185614883899689 0.64185613393783569
vt 0.14185614883899689 0.60814386606216431
vt 0.072429575026035309 0.60814386606216431
vt 0.072429575026035309 0.64185613393783569
vn -0.85552883148193359 -0.036711435765028 0.51645195484161377
vn -0.85552883148193359 -0.036711435765028 0.51645195484161377
vn -0.85552883148193359 -0.036711435765028 0.51645195484161377
vn -0.85552883148193359 -0.036711435765028 0.51645195484161377
f 65/65/65 66/66/66 67/67/67 68/68/68
usemtl _plant_2_apg_
v -16.249232953070848 28.081823516497096 36.213478897112175
v -16.07479076006647 28.061854539542161 36.019769245629917
v -16.317754746284287 27.466662924161408 35.763731630655364
v -16.492299150619559 27.486385072971849 35.958011849319384
vt 0.64185613393783569 0.21528671681880951
vt 0.60814386606216431 0.21528671681880951
vt 0.60814386606216431 0.28471329808235168
vt 0.64185613393783569 0.28471329808235168
vn -0.61313080787658691 0.50961142778396606 -0.60362803936004639
vn -0.61313080787658691 0.50961142778396606 -0.60362803936004639
vn -0.61313080787658691 0.50961142778396606 -0.60362803936004639
vn -0.61313080787658691 0.50961142778396606 -0.60362803936004639
f 69/69/69 70/70/70 71/71/71 72/72/72
usemtl _plant_2_apg_
v -16.492299150619559 27.486385072971849 35.958011849319384
v -16.317754746284287 27.466662924161408 35.763731630655364
v -16.361222519749582 26.787559117452588 35.611828775586353
v -16.535699234708453 26.807519409323049 35.805573056185565
vt 0.28471329808235168 0.64185613393783569
vt 0.28471329808235168 0.60814386606216431
vt 0.21528671681880951 0.60814386606216431
vt 0.21528671681880951 0.64185613393783569
vn -0.71912479400634766 0.19544799625873566 -0.66682803630828857
vn -0.71912479400634766 0.19544799625873566 -0.66682803630828857
vn -0.71912479400634766 0.19544799625873566 -0.66682803630828857
vn -0.71912479400634766 0.19544799625873566 -0.66682803630828857
f 73/73/73 74/74/74 75/75/75 76/76/76
usemtl _plant_2_apg_
v -16.535699234708453 26.807519409323049 35.805573056185565
v -16.361222519749582 26.787559117452588 35.611828775586353
v -16.33330145899339 26.040318545413871 35.604945891309079
v -16.507790979478742 26.060281477820247 35.798689269359308
vt 0.64185613393783569 0.2867152988910675
vt 0.60814386606216431 0.2867152988910675
vt 0.60814386606216431 0.35614186525344849
vt 0.64185613393783569 0.35614186525344849
vn -0.74401110410690308 -0.021642329171299934 -0.6678166389465332
vn -0.74401110410690308 -0.021642329171299934 -0.6678166389465332
vn -0.74401110410690308 -0.021642329171299934 -0.6678166389465332
vn -0.74401110410690308 -0.021642329171299934 -0.6678166389465332
f 77/77/77 78/78/78 79/79/79 80/80/80
usemtl _plant_2_apg_
v -16.290029484516936 27.147204776549707 35.896815728380503
v -16.486262575157888 27.137941274054391 35.760347159653406
v -16.48994650420795 26.467833025923984 35.87470687510335
v -16.29371603870176 26.477084821970735 36.011136088833439
vt 0.49899899959564209 0.71328473091125488
vt 0.49899899959564209 0.67957240343093872
vt 0.42957243323326111 0.67957240343093872
vt 0.42957243323326111 0.71328473091125488
vn -0.56965267658233643 0.14128179848194122 0.80965131521224976
vn -0.56965267658233643 0.14128179848194122 0.80965131521224976
vn -0.56965267658233643 0.14128179848194122 0.80965131521224976
vn -0.56965267658233643 0.14128179848194122 0.80965131521224976
f 81/81/81 82/82/82 83/83/83 84/84/84
usemtl _plant_2_apg_
v -16.112385209325275 27.073781567268032 35.754485168786246
v -16.290029484516936 27.147204776549707 35.896815728380503
v -16.29371603870176 26.477084821970735 36.011136088833439
v -16.116071437188058 26.403663194006221 35.868810570548227
vt 0.71328473091125488 0.35814386606216431
vt 0.67957240343093872 0.35814386606216431
vt 0.67957240343093872 0.42757043242454529
vt 0.71328473091125488 0.42757043242454529
vn 0.65117257833480835 0.12414780259132385 0.7487066388130188
vn 0.65117257833480835 0.12414780259132385 0.7487066388130188
vn 0.65117257833480835 0.12414780259132385 0.7487066388130188
vn 0.65117257833480835 0.12414780259132385 0.7487066388130188
f 85/85/85 86/86/86 87/87/87 88/88/88
usemtl _plant_2_apg_
v -16.049343972126373 27.754856585479462 35.747102145612196
v -16.226988338882364 27.828279156653405 35.889431254027812
v -16.290029484516936 27.147204776549707 35.896815728380503
v -16.112385209325275 27.073781567268032 35.754485168786246
vt 0.71328473091125488 0.6775704026222229
vt 0.71328473091125488 0.64385813474655151
vt 0.64385813474655151 0.64385813474655151
vt 0.64385813474655151 0.6775704026222229
vn 0.61235499382019043 -0.048125330358743668 0.78911679983139038
vn 0.61235499382019043 -0.048125330358743668 0.78911679983139038
vn 0.61235499382019043 -0.048125330358743668 0.78911679983139038
vn 0.61235499382019043 -0.048125330358743668 0.78911679983139038
f 89/89/89 90/90/90 91/91/91 92/92/92
usemtl _plant_2_apg_
v -16.226988338882364 27.828279156653405 35.889431254027812
v -16.423220665907287 27.819018492502433 35.752974311440717
v -16.486262575157888 27.137941274054391 35.760347159653406
v -16.290029484516936 27.147204776549707 35.896815728380503
vt 0.74899899959564209 0.072429575026035309
vt 0.7152867317199707 0.072429575026035309
vt 0.7152867317199707 0.14185614883899689
vt 0.74899899959564209 0.14185614883899689
vn -0.57180529832839966 0.061789974570274353 0.81805908679962158
vn -0.57180529832839966 0.061789974570274353 0.81805908679962158
vn -0.57180529832839966 0.061789974570274353 0.81805908679962158
vn -0.57180529832839966 0.061789974570274353 0.81805908679962158
f 93/93/93 94/94/94 95/95/95 96/96/96
usemtl _plant_2_apg_
v -16.231186225000613 27.120370972858957 35.752277955545409
v -16.041492178899212 27.076423068585719 35.891208317022588
v -16.149427107263143 26.416747239462516 35.767455958760642
v -16.339121182584812 26.460682927117627 35.628564785106384
vt 0.070427566766738892 0.82042759656906128
vt 0.070427566766738892 0.78671526908874512
vt 0.0010010009864345193 0.78671526908874512
vt 0.0010010009864345193 0.82042759656906128
vn 0.59785443544387817 0.052214164286851883 -0.79990231990814209
vn 0.59785443544387817 0.052214164286851883 -0.79990231990814209
vn 0.59785443544387817 0.052214164286851883 -0.79990231990814209
vn 0.59785443544387817 0.052214164286851883 -0.79990231990814209
f 97/97/97 98/98/98 99/99/99 100/100/100
usemtl _plant_2_apg_
v -16.420880010961163 27.076433919218797 35.891174409116964
v -16.231186225000613 27.120370972858957 35.752277955545409
v -16.339121182584812 26.460682927117627 35.628564785106384
v -16.528814974092896 26.416747215092943 35.767456216894836
vt 0.7847132682800293 0.7152867317199707
vt 0.75100100040435791 0.7152867317199707
vt 0.75100100040435791 0.7847132682800293
vt 0.7847132682800293 0.7847132682800293
vn -0.60907649993896484 0.24133853614330292 -0.75550085306167603
vn -0.60907649993896484 0.24133853614330292 -0.75550085306167603
vn -0.60907649993896484 0.24133853614330292 -0.75550085306167603
vn -0.60907649993896484 0.24133853614330292 -0.75550085306167603
f 101/101/101 102/102/102 103/103/103 104/104/104
usemtl _plant_2_apg_
v -16.367922421466012 27.75821546871126 35.907333147474247
v -16.17822866371143 27.802152252109579 35.768438138156455
v -16.231186225000613 27.120370972858957 35.752277955545409
v -16.420880010961163 27.076433919218797 35.891174409116964
vt 0.28471329808235168 0.82042759656906128
vt 0.28471329808235168 0.78671526908874512
vt 0.21528671681880951 0.78671526908874512
vt 0.21528671681880951 0.82042759656906128
vn -0.59933340549468994 0.065463133156299591 -0.79781830310821533
vn -0.59933340549468994 0.065463133156299591 -0.79781830310821533
vn -0.59933340549468994 0.065463133156299591 -0.79781830310821533
vn -0.59933340549468994 0.065463133156299591 -0.79781830310821533
f 105/105/105 106/106/106 107/107/107 108/108/108
usemtl _plant_2_apg_
v -16.17822866371143 27.802152252109579 35.768438138156455
v -15.988534711339323 27.758207157473755 35.907356927145109
v -16.041492178899212 27.076423068585719 35.891208317022588
v -16.231186225000613 27.120370972858957 35.752277955545409
vt 0.82042759656906128 0.2867152988910675
vt 0.78671526908874512 0.2867152988910675
vt 0.78671526908874512 0.35614186525344849
vt 0.82042759656906128 0.35614186525344849
vn 0.58666121959686279 -0.02639068104326725 -0.80940234661102295
vn 0.58666121959686279 -0.02639068104326725 -0.80940234661102295
vn 0.58666121959686279 -0.02639068104326725 -0.80940234661102295
vn 0.58666121959686279 -0.02639068104326725 -0.80940234661102295
f 109/109/109 110/110/110 111/111/111 112/112/112
usemtl _plant_2_apg_
v -16.245432883862094 26.49206450296629 35.831956787182719
v -16.259752259871348 26.58257243403574 36.07684549153339
v -16.259752448938158 25.499186884502727 36.06975916988462
v -16.245432987064039 25.407513458862017 35.820211021682262
vt 0.57042759656906128 0.89185613393783569
vt 0.57042759656906128 0.85814386606216431
vt 0.50100100040435791 0.85814386606216431
vt 0.50100100040435791 0.89185613393783569
vn 0.99831587076187134 -0.00050405820365995169 0.058010265231132507
vn 0.99831587076187134 -0.00050405820365995169 0.058010265231132507
vn 0.99831587076187134 -0.00050405820365995169 0.058010265231132507
vn 0.99831587076187134 -0.00050405820365995169 0.058010265231132507
f 113/113/113 114/114/114 115/115/115 116/116/116
usemtl _plant_2_apg_
v -16.259752259871348 26.58257243403574 36.07684549153339
v -16.515649389631516 26.605008184155732 36.125636334021628
v -16.51564970215685 25.520828600023709 36.115375418751022
v -16.259752448938158 25.499186884502727 36.06975916988462
vt 0.89185613393783569 0.5724295973777771
vt 0.85814386606216431 0.5724295973777771
vt 0.85814386606216431 0.64185613393783569
vt 0.89185613393783569 0.64185613393783569
vn 0.18074129521846771 -0.0078710876405239105 0.98349916934967041
vn 0.18074129521846771 -0.0078710876405239105 0.98349916934967041
vn 0.18074129521846771 -0.0078710876405239105 0.98349916934967041
vn 0.18074129521846771 -0.0078710876405239105 0.98349916934967041
f 117/117/117 118/118/118 119/119/119 120/120/120
usemtl _plant_2_apg_
v -16.259752141888193 27.580743599293342 36.015012005196709
v -16.515649285246386 27.603179349412937 36.063802865486117
v -16.515649389631516 26.605008184155732 36.125636334021628
v -16.259752259871348 26.58257243403574 36.07684549153339
vt 0.71328473091125488 0.89185613393783569
vt 0.71328473091125488 0.85814386606216431
vt 0.64385813474655151 0.85814386606216431
vt 0.64385813474655151 0.89185613393783569
vn 0.19207759201526642 0.06067701056599617 0.97950214147567749
vn 0.19207759201526642 0.06067701056599617 0.97950214147567749
vn 0.19207759201526642 0.06067701056599617 0.97950214147567749
vn 0.19207759201526642 0.06067701056599617 0.97950214147567749
f 121/121/121 122/122/122 123/123/123 124/124/124
usemtl _plant_2_apg_
v -16.245432441844521 28.488406383663943 35.708289929625749
v -16.259751876786904 28.578914512617708 35.95317865942949
v -16.259752141888193 27.580743599293342 36.015012005196709
v -16.245432663995047 27.490235641199629 35.770123308202301
vt 0.7847132682800293 0.89185613393783569
vt 0.7847132682800293 0.85814386606216431
vt 0.7152867317199707 0.85814386606216431
vt 0.7152867317199707 0.89185613393783569
vn 0.99836385250091553 0.0035351396072655916 0.057071022689342499
vn 0.99836385250091553 0.0035351396072655916 0.057071022689342499
vn 0.99836385250091553 0.0035351396072655916 0.057071022689342499
vn 0.99836385250091553 0.0035351396072655916 0.057071022689342499
f 125/125/125 126/126/126 127/127/127 128/128/128
usemtl _plant_2_apg_
v -16.245432663995047 27.490235641199629 35.770123308202301
v -16.259752141888193 27.580743599293342 36.015012005196709
v -16.259752259871348 26.58257243403574 36.07684549153339
v -16.245432883862094 26.49206450296629 35.831956787182719
vt 0.89185613393783569 0.78671526908874512
vt 0.85814386606216431 0.78671526908874512
vt 0.85814386606216431 0.85614186525344849
vt 0.89185613393783569 0.85614186525344849
vn 0.99836385250091553 0.0035352222621440887 0.057070739567279816
vn 0.99836385250091553 0.0035352222621440887 0.057070739567279816
vn 0.99836385250091553 0.0035352222621440887 0.057070739567279816
vn 0.99836385250091553 0.0035352222621440887 0.057070739567279816
f 129/129/129 130/130/130 131/131/131 132/132/132
